<?xml version="1.0" encoding="utf-8"?>
<!-- Generator: Adobe Illustrator 25.4.0, SVG Export Plug-In . SVG Version: 6.00 Build 0)  -->
<svg version="1.1" id="Capa_1" xmlns="http://www.w3.org/2000/svg" xmlns:xlink="http://www.w3.org/1999/xlink" x="0px" y="0px"
	 viewBox="0 0 6020 1000" style="enable-background:new 0 0 6020 1000;" xml:space="preserve">
<style type="text/css">
	.st0{fill-rule:evenodd;clip-rule:evenodd;fill:#FFFFFF;}
	.st1{fill:#FFFFFF;}
</style>
<path class="st0" d="M134.6,185.3H85.1v-70.6H53v70.6H2.3V3.1H53v68h32.1v-68h49.5V185.3z M361.7,186.1c50.7,0,92.1-42.2,92.1-93.6
	c0-52.2-41.4-92.5-92.1-92.5c-51.3,0-77.3,37.4-83.6,52.6C278.1,30,255.6,3,229.4,3h-84.6v182.2h78.7c32.1,0,54.6-27.4,54.6-51.3
	C285.2,148.7,310.4,186.1,361.7,186.1L361.7,186.1z M217.2,112c7.3,0,13.2,7.1,13.2,15.2c0,8.5-5.9,15.6-13.2,15.6h-25.2V112H217.2z
	 M217.2,43.6c7.3,0,13.2,7.1,13.2,15.2s-5.9,15.2-13.2,15.2h-25.2V43.6H217.2z M250.5,92.5c5.9-0.4,15.4-7.1,19.1-11.2
	c-1.4,4.9-1.4,20.3,0,25.2C265.5,100.7,256.4,93.6,250.5,92.5z M315.5,92.5c0-25.7,20.9-46.4,46.6-46.3c25.5,0.1,46.1,20.9,46,46.4
	c0,0.2,0,0.4,0,0.6c-0.4,25.4-20.9,45.8-46.3,45.8C336.1,139,315.5,118.3,315.5,92.5z M361.7,129.1c19.7,0,36.3-16.2,36.3-36.5
	s-16.6-36.3-36.3-36.3c-20.3,0-36.5,16-36.5,36.3S341.4,129.1,361.7,129.1L361.7,129.1z"/>
<path class="st1" d="M718.5,67.6C717.5,23.4,686.3,0,648,0c-21,0-39.9,7.1-52.9,20.7C582.3,7.1,563.4,0,542.3,0
	c-38.3,0-69.5,23.4-70.5,67.6c0,0.1,0,0.2,0,0.3v100.7c0,9.3,7.5,16.7,16.7,16.7h15.8c1.5,0,2.8-1.2,2.8-2.8l0,0V67.9h0
	c0.7-21.8,16.2-33.3,35.2-33.3s34.5,11.5,35.2,33.3h0v100.7c0,9.3,7.5,16.7,16.7,16.7h15.8c1.5,0,2.8-1.2,2.8-2.8l0,0V67.9h0
	c0.7-21.8,16.2-33.3,35.2-33.3s34.5,11.5,35.2,33.3h0v100.7c0,9.3,7.5,16.7,16.7,16.7h15.8c1.5,0,2.8-1.2,2.8-2.8l0,0V67.9
	C718.6,67.8,718.6,67.7,718.5,67.6z"/>
<path class="st1" d="M1074.7,3h-26.8c-7.4,0-14.4,3.7-18.5,9.8l-29.7,44c-3,4.5-9.1,5.7-13.5,2.7c-1-0.7-2-1.6-2.7-2.7l-29.7-44
	C949.7,6.7,942.8,3,935.3,3h-26.8c-1.2,0-2.1,0.9-2.1,2.1c0,0.4,0.1,0.8,0.4,1.2l53,78.6c3.8,5.7,3.8,13.1,0,18.7l-53,78.6
	c-0.6,1-0.4,2.3,0.6,2.9c0.3,0.2,0.8,0.4,1.2,0.4h26.8c7.4,0,14.4-3.7,18.5-9.8l29.7-44c3-4.5,9.1-5.7,13.5-2.7c1,0.7,2,1.6,2.7,2.7
	l29.7,44c4.2,6.2,11.1,9.8,18.5,9.8h26.8c1.2,0,2.1-0.9,2.1-2.1c0-0.4-0.1-0.8-0.4-1.2l-53-78.6c-3.8-5.7-3.8-13.1,0-18.7l53-78.6
	c0.6-1,0.4-2.3-0.6-2.9C1075.6,3.1,1075.2,3,1074.7,3z"/>
<path class="st1" d="M894.4,3h-15.8c-7.9,0-14.7,5.5-16.4,13.2C848.1,5.5,830.5,0,811.4,0c-46.3,0-83.9,32.2-83.9,93.1
	s37.6,93.1,83.9,93.1c19,0,36.5-5.4,50.5-16c0.8,8.6,8,15.2,16.7,15.2h15.8c1.5,0,2.8-1.2,2.8-2.8l0,0V5.8C897.2,4.2,896,3,894.4,3z
	 M811.4,151.5c-27.7,0-50.1-20.2-50.1-58.4s22.4-58.4,50.1-58.4s50.1,20.2,50.1,58.4S839.1,151.5,811.4,151.5z"/>
<path class="st1" d="M1099.1,6.5h-5.3v15.9h-3.9V6.5h-5.2V2.8h14.4V6.5z"/>
<path class="st1" d="M1121.8,22.3h-3.8V9.7l-5.5,9.1h-0.4l-5.5-9v12.6h-3.9V2.8h4l5.6,9.2l5.6-9.2h4L1121.8,22.3L1121.8,22.3z"/>
</svg>
